<?xml version="1.0" encoding="UTF-8"?>
<svg id="Layer_1" data-name="Layer 1" xmlns="http://www.w3.org/2000/svg" viewBox="0 0 190.6 122.38">
  <defs>
    <style>
      .cls-1 {
        fill: #9a8764;
        stroke-width: 0px;
      }
    </style>
  </defs>
  <path class="cls-1" d="M155.71,39.21s.06-.15-.07-.14c.03.04.05.09.08.13.07.14.13.28.21.41,1.37,2.19,2.59,4.47,3.66,6.82,1.92,4.22,3.36,8.58,3.99,13.19.37,2.7.46,5.41.28,8.13-.02.31-.08.62-.14,1-3.31-1.91-6.4-4-9.32-6.35.02.15.07.27.11.39.67,1.63,1.33,3.26,2.01,4.88.18.43.28.87.33,1.33.25,2.11.49,4.22.74,6.32.34,2.83.67,5.66,1.03,8.48.05.39.03.81.22,1.26.09-.15.14-.23.18-.31,1.03-2.01,2.08-4.01,3.1-6.03.54-1.07,1.17-2.11,1.53-3.27.31-1,.68-1.99,1.01-2.99.12-.34.27-.68.32-1.04.22-1.65.35-3.31.34-4.98,0-1.3-.06-2.6-.21-3.89-.33-2.9-.94-5.74-1.83-8.51-1.67-5.19-4.18-9.98-7.22-14.49-.09-.13-.14-.33-.35-.35M164.29,41.96c.48,3.44,1.21,6.91,2.05,10.36,1.12,4.64,2.52,9.19,4.33,13.61.6,1.47,1.29,2.91,2.04,4.31,1.1,2.06,2.03,4.2,2.93,6.36,1.28,3.07,2.65,6.11,3.95,9.18.88,2.08,1.73,4.17,2.27,6.37.11.44.19.9.27,1.35.07.4.03.8-.12,1.19-.13.36-.38.55-.78.56-.45,0-.87-.07-1.28-.27-2.05-1.01-3.75-2.4-5.04-4.32-1.39-2.07-2.63-4.23-3.79-6.43-1.76-3.33-3.38-6.74-4.95-10.17-.05-.12-.07-.26-.23-.35-.13.09-.14.25-.18.38-.3.85-.58,1.7-.87,2.55-.21.6-.54,1.14-.82,1.71-1.38,2.69-2.77,5.38-4.15,8.07-.08.17-.21.32-.23.55.13.08.28.05.43.05,1.15,0,2.3,0,3.45,0,.44,0,.45.01.46.44,0,.23,0,.46,0,.69-.01.43-.01.44-.47.44-3.05,0-6.09,0-9.14,0-.49,0-.49,0-.5-.53q-.02-1.05,1-1.05c.71,0,1.42,0,2.13,0,.39,0,.41-.03.37-.38-.28-2.32-.57-4.63-.85-6.95-.25-2.13-.49-4.26-.74-6.38-.18-1.5-.37-3-.55-4.5-.02-.16-.07-.3-.13-.44-1.1-2.67-2.21-5.34-3.3-8.02-.15-.36-.37-.66-.64-.93-2.11-2.13-3.98-4.45-5.43-7.09-1.18-2.15-2-4.43-2.31-6.87-.38-2.96.06-5.8,1.36-8.49.92-1.9,2.07-3.67,3.23-5.42.76-1.15,1.53-2.3,2.09-3.56.63-1.41.92-2.87.66-4.42-.18-1.09-.54-2.11-1-3.1-.68-1.46-1.57-2.8-2.51-4.11-.12-.17-.24-.34-.33-.53.63.35,1.18.81,1.74,1.25,1.02.81,1.99,1.68,3.05,2.45,1.14.82,2.33,1.55,3.7,1.91.63.17,1.28.18,1.97.25-1.15-.14-2.22-.4-3.22-.92-1.08-.56-2.04-1.28-2.95-2.09-1.35-1.19-2.64-2.44-4.03-3.59-.43-.35-.84-.73-1.29-1.05-1.63-1.15-3.03-2.58-4.68-3.71-2.63-1.8-5.48-3.03-8.62-3.62-.35-.07-.72-.02-1.07-.22.56-.62,1.27-.84,2.04-.97,1.47-.25,2.9,0,4.33.29,2.58.52,5.06,1.36,7.48,2.39.63.27,1.21.3,1.84.15,1.06-.25,2.13-.48,3.18-.78,1.13-.32,2.29-.31,3.42-.17,3.08.4,5.46,2.01,7.23,4.51.94,1.33,1.35,2.86,1.57,4.45.2,1.42.3,2.86.35,4.29.16,4.48,1.61,8.5,4.21,12.13.87,1.22,1.84,2.35,2.84,3.46,2.06,2.28,3.31,4.99,4.09,7.94.52,1.97.81,3.97.96,6,.14,1.95.14,3.9.05,5.85-.12,2.66-.41,5.3-.85,7.93-.28,1.71-.57,3.43-.85,5.14-.23-.03-.25-.21-.31-.33-1.52-2.88-2.8-5.87-3.91-8.93-1.46-4-2.65-8.07-3.63-12.21-.41-1.71-.76-3.44-1.13-5.16-.04-.2-.09-.41-.12-.54"/>
  <path class="cls-1" d="M73.83,45.16c.57.04,1.15-.1,1.73-.16,1.22-.11,2.43-.27,3.65-.4,1.64-.18,3.27-.36,4.91-.53,1.22-.13,2.44-.25,3.65-.38,1.69-.18,3.38-.36,5.08-.54,1.16-.12,2.32-.25,3.48-.37,1.73-.19,3.46-.38,5.19-.56,1.85-.19,3.68-.44,5.52-.71,2.03-.29,4.04-.62,6.06-.99,4.52-.82,9-1.78,13.46-2.91.32-.08.54-.03.71.28.22.4.66.71.73,1.15.06.44-.23.87-.37,1.31-1.2,3.53-2.41,7.06-3.61,10.59-.02.07-.06.14-.07.22-.05.33-.26.38-.54.33-.49-.08-.98-.16-1.48-.21-.25-.03-.32-.11-.26-.37.2-.94.38-1.87.56-2.81.04-.18.12-.37.04-.56-.18-.03-.33.07-.48.13-5.37,2.12-10.89,3.73-16.55,4.88-2.5.51-5.01.9-7.53,1.21-1.6.19-3.2.33-4.8.5-1.98.21-3.95.43-5.93.64-1.26.13-2.51.25-3.77.39-1.62.17-3.23.35-4.85.53-1.22.13-2.44.25-3.65.38-1.73.18-3.46.36-5.19.55-.34.04-.69.07-1.03.11-.2.02-.28-.07-.29-.25,0-.11,0-.23,0-.34,0-2.51-.1-5.02-.18-7.52-.08-2.43-.21-4.86-.34-7.28-.14-2.48-.29-4.97-.46-7.45-.18-2.69-.37-5.38-.58-8.07-.15-1.98-.34-3.96-.53-5.94-.03-.35.04-.62.27-.89,2.05-2.39,4.3-4.58,6.82-6.48.76-.57,1.56-1.11,2.45-1.57.22.59.26,1.18.31,1.76.18,2.22.15,4.44.09,6.66-.07,2.29-.18,4.59-.34,6.88-.19,2.81-.42,5.61-.68,8.41-.23,2.51-.52,5.02-.8,7.53-.1.85-.25,1.7-.38,2.55-.01.09-.05.18.02.33"/>
  <path class="cls-1" d="M8.46,52.68c1.19-.37,2.31-.71,3.42-1.06,7.54-2.43,15-5.09,22.19-8.46.71-.33,1.4-.71,2.11-1.05.33-.16.54-.39.69-.72,1.18-2.43,2.37-4.85,3.56-7.27.35-.72.76-1.42,1.22-2.08.7-1.01,1.66-1.61,2.84-1.91,1.19-.31,2.41-.42,3.62-.58,1.95-.26,3.9-.54,5.82-1.02.38-.1.57-.26.66-.66.5-2.04,1-4.09,1.44-6.14.11-.49.11-.49.59-.48.52,0,1.03.01,1.55.03.38.01.41.04.37.39-.69,5.97-2.09,11.74-4.68,17.19-.17.36-.4.56-.79.66-1.98.52-3.99.89-6.02,1.18-2.18.31-4.37.54-6.56.7-.48.03-.72.21-.87.7-1.06,3.53-2.64,6.81-4.88,9.76-1.39,1.83-2.97,3.45-5,4.6-1.54.87-3.18,1.39-4.93,1.61-2.32.29-4.58-.03-6.8-.67-2.66-.77-5.22-1.76-7.6-3.19-.69-.41-1.35-.86-1.96-1.52"/>
  <path class="cls-1" d="M122.41,79.28c1.6,1.29,2.52,3.08,3.74,4.64.9,1.15,1.78,2.31,2.87,3.28.75.67,1.58,1.14,2.6,1.22.09,0,.19.02.28.06.04.02.08.08.09.12.01.06-.03.1-.09.12-.02,0-.04.01-.06.01-1.18,0-2.38.11-3.53-.29-1.33-.46-2.38-1.32-3.2-2.43-1.24-1.68-2.41-3.41-3.61-5.11-.32-.46-.68-.87-1.06-1.28-.46-.48-.96-.88-1.64-.99-.12-.02-.24-.05-.2-.21.02-.11.14-.12.23-.12.15,0,.31,0,.46,0,.81,0,1.6-.04,2.4-.22,1.74-.39,2.79-1.46,3.14-3.19.25-1.22.2-2.45-.28-3.62-.59-1.45-1.68-2.24-3.25-2.34-1.09-.07-2.18-.03-3.27-.02-.4,0-.4.02-.42.44,0,.13,0,.27,0,.4,0,5.4,0,10.8,0,16.2,0,.25,0,.5.02.75.06.92.71,1.59,1.62,1.72.19.03.55-.06.53.17-.02.28-.38.14-.58.14-1.74.01-3.49,0-5.23,0-.11,0-.23,0-.34,0-.11,0-.26.01-.25-.15,0-.15.15-.14.27-.15.27-.02.54,0,.79-.12.65-.3,1.08-.79,1.17-1.52.03-.25.03-.5.03-.74,0-5.11,0-10.23,0-15.34,0-.19,0-.38,0-.57-.07-1.06-.77-1.77-1.82-1.87-.15-.01-.41.11-.41-.15,0-.24.26-.16.42-.16,2.57,0,5.13,0,7.7,0,.61,0,1.22.08,1.82.24,2.23.61,3.62,2.26,3.84,4.62.18,1.96-.42,3.66-1.83,5.06-.8.79-1.76,1.27-2.92,1.39"/>
  <path class="cls-1" d="M68.12,78.29v8.67c0,.15,0,.31,0,.46,0,.2.1.27.28.27,1.32-.03,2.65.12,3.95-.13,1.57-.29,2.68-1.18,3.2-2.72.28-.81.32-1.65.25-2.5-.13-1.64-.88-2.91-2.36-3.69-.77-.41-1.6-.62-2.46-.74-.53-.07-1.06-.13-1.6-.13-.1,0-.21,0-.22-.13-.02-.16.11-.18.23-.18.42,0,.84-.07,1.25-.13,1.78-.28,3.02-1.48,3.3-3.21.1-.64.1-1.3,0-1.95-.27-1.78-1.31-2.82-3.09-3.16-.74-.14-1.49-.09-2.23-.1-.51,0-.51,0-.51.5,0,.11,0,.23,0,.34v8.5ZM73.23,77.41c.12.13.28.13.43.17,2.68.67,4.38,2.75,4.42,5.51.04,2.35-1.18,4.21-3.42,5.07-.96.37-1.94.57-2.97.57-2.45,0-4.9,0-7.36.01-.1,0-.19,0-.29-.01-.05,0-.11-.02-.12-.1-.02-.1.04-.15.12-.17.15-.03.3-.03.46-.05.93-.11,1.6-.81,1.66-1.76.01-.19,0-.38,0-.57,0-5.15,0-10.3,0-15.45,0-.13,0-.27,0-.4-.03-1.12-.73-1.86-1.85-1.96-.06,0-.11,0-.17,0-.12,0-.25-.02-.24-.17,0-.11.12-.13.22-.14.04,0,.08,0,.11,0,2.28.03,4.56-.1,6.83.09,1.18.1,2.29.43,3.27,1.13,1.55,1.1,2.1,2.64,1.86,4.47-.22,1.71-1.15,2.93-2.73,3.64-.09.04-.17.08-.26.13"/>
  <path class="cls-1" d="M47.42,80.65c-.16-.76-3.3-9-3.57-9.36-1.22,3.12-2.44,6.22-3.67,9.36h7.24ZM43.85,81.57c-1.19,0-2.38.01-3.56,0-.33,0-.51.09-.63.42-.55,1.45-1.13,2.89-1.69,4.33-.1.25-.2.5-.22.77-.05.68.33,1.19,1,1.33.07.02.15.02.23.03.11.02.26.02.24.18-.02.15-.17.12-.28.12-1.8,0-3.6,0-5.4,0-.11,0-.26.02-.25-.15,0-.15.15-.15.26-.15,1.38-.07,2.18-.88,2.68-2.09,1.47-3.51,2.96-7.02,4.44-10.53.89-2.1,1.77-4.19,2.66-6.29.23-.55.45-1.1.59-1.68.02-.11.03-.25.17-.27.18-.03.21.12.26.24.68,1.62,1.36,3.25,2.04,4.87,1.9,4.54,3.79,9.07,5.69,13.61.31.74.71,1.4,1.45,1.79.4.21.82.32,1.27.34.1,0,.2.03.21.15,0,.12-.1.14-.2.15-.1,0-.19,0-.29,0-1.88,0-3.75,0-5.63,0-.04,0-.08,0-.12,0-.14-.03-.36.08-.38-.13-.02-.21.22-.16.36-.18.94-.19,1.33-.81,1.01-1.73-.43-1.23-.91-2.44-1.36-3.66-.13-.36-.29-.71-.4-1.08-.09-.31-.26-.41-.58-.41-1.19.02-2.38,0-3.56,0"/>
  <path class="cls-1" d="M100.95,67.48c.12.41.07.75.06,1.09,0,.71,0,1.42,0,2.13,0,.15.09.42-.11.44-.25.03-.12-.26-.17-.4-.03-.09-.02-.19-.03-.28-.12-.92-.78-1.53-1.7-1.54-1.82-.01-3.64,0-5.46,0-.5,0-.51,0-.51.51,0,2.7,0,5.4,0,8.1,0,.51,0,.52.5.52,1.44,0,2.87.01,4.31,0,1,0,1.5-.49,1.6-1.49,0-.06,0-.12.01-.17.01-.1.05-.19.18-.17.1.01.11.09.12.17,0,.08,0,.15,0,.23,0,1.28,0,2.57,0,3.85,0,.13.08.36-.13.38-.21.01-.16-.21-.17-.36-.1-1.02-.57-1.49-1.58-1.51-1.47-.03-2.95-.01-4.43,0-.39,0-.4.02-.4.44,0,.69,0,1.38,0,2.07,0,1.95,0,3.91,0,5.86,0,.48,0,.49.47.49,1.42,0,2.84.02,4.25-.02,1.71-.04,3.07-.74,3.95-2.25.23-.39.44-.81.66-1.21.05-.1.1-.21.16-.31.04-.07.11-.11.2-.07.08.03.1.1.07.19-.02.05-.04.11-.06.16-.48,1.33-.97,2.66-1.43,4-.11.32-.26.44-.61.44-3.79-.01-7.59,0-11.38,0-.08,0-.15,0-.23,0-.11,0-.25,0-.25-.16,0-.11.12-.13.21-.14.06,0,.11,0,.17,0,1.15-.12,1.78-.79,1.84-1.95,0-.17,0-.34,0-.52,0-5.06,0-10.11,0-15.17,0-.23-.01-.46,0-.69,0-1.03-.85-1.73-1.73-1.83-.17-.02-.48.11-.47-.16.02-.29.34-.15.52-.15,2.28-.01,4.56-.02,6.84,0,1.59.01,3.17-.05,4.75-.48"/>
  <path class="cls-1" d="M55.31,52.01c-.27.25-.61.42-.93.63-1.66,1.09-3.33,2.18-4.99,3.27-.45.3-.38.32-.82-.06-.8-.68-1.53-1.44-2.2-2.26-.95-1.16-1.77-2.4-2.56-3.67-.15-.24-.11-.35.11-.5,2.17-1.44,4.33-2.88,6.5-4.32.3-.2.31-.19.52.14.62,1.01,1.24,2.02,1.87,3.03.73,1.17,1.5,2.31,2.33,3.41.07.09.16.16.17.32"/>
  <path class="cls-1" d="M23.17,69.72c0,.5,0,1,0,1.49,0,.11.02.26-.14.26-.15,0-.14-.15-.16-.26-.02-.17-.02-.35-.07-.51-.14-.51-.38-.96-.77-1.32-1.25-1.17-3.57-1.23-4.88-.12-1.57,1.33-1.7,3.65-.24,5.15.92.94,1.92,1.81,2.89,2.71,1.04.96,2.09,1.92,3.13,2.87,1.22,1.11,1.59,2.55,1.48,4.12-.15,2.11-1.1,3.71-3.09,4.61-.62.28-1.28.41-1.95.45-1.27.07-2.52-.1-3.73-.53-.27-.1-.54-.21-.79-.34-1.07-.54-1.12-.65-1.13-1.87,0-.81.09-1.6.26-2.39.03-.15.08-.3.12-.44.03-.1.1-.16.21-.13.1.03.09.11.09.19,0,.46,0,.91.08,1.37.41,2.16,2.23,3.49,4.57,3.22.69-.08,1.33-.33,1.92-.7,2.18-1.36,2.12-4.56.58-5.94-1.75-1.57-3.46-3.19-5.18-4.8-.25-.23-.51-.47-.74-.72-1.34-1.44-1.76-3.12-1.19-4.99.57-1.88,1.86-3.03,3.8-3.41,1.01-.2,2.02-.12,3.02.06.46.08.91.11,1.37.11.53,0,.53.01.53.55v1.32h-.01"/>
  <path class="cls-1" d="M57.28,57.32c.07.78.14,1.54.22,2.3.03.29-.15.36-.36.43-1.01.36-2.02.72-3.03,1.08-3.69,1.32-7.39,2.63-11.08,3.95-.43.16-.53.15-.6-.33-.05-.34-.15-.67-.25-1-.09-.26,0-.37.24-.47,1.12-.44,2.23-.9,3.35-1.36,3.69-1.5,7.37-3,11.06-4.5.12-.05.24-.13.44-.11"/>
  <g>
    <path class="cls-1" d="M57.91,116.76h-8.7v-.58l6.35-10.33h0s-4.54,0-4.54,0v-.45h4.99v.59l-6.34,10.33h8.25v.45Z"/>
    <path class="cls-1" d="M61.58,116.15c-.56-.53-1-1.24-1.31-2.13-.32-.89-.48-1.87-.48-2.92s.16-2.03.48-2.92c.32-.89.76-1.61,1.31-2.13s1.17-.79,1.84-.79,1.29.26,1.84.79,1,1.24,1.31,2.13c.32.89.48,1.87.48,2.92s-.16,2.03-.48,2.92c-.32.9-.76,1.61-1.31,2.13s-1.17.79-1.84.79-1.28-.26-1.84-.79ZM64.97,115.73c.48-.48.86-1.13,1.14-1.95.28-.82.42-1.72.42-2.69s-.14-1.87-.42-2.69c-.28-.82-.66-1.47-1.14-1.95-.48-.48-.99-.72-1.55-.72s-1.06.24-1.54.72c-.48.48-.86,1.13-1.14,1.95-.29.82-.43,1.72-.43,2.69s.14,1.87.43,2.69c.28.82.67,1.47,1.14,1.95.48.48.99.72,1.54.72s1.07-.24,1.55-.72Z"/>
    <path class="cls-1" d="M73.28,116.76v-10.76l-3.87,4.1-.32-.34,4.12-4.36h.52v11.36h-.45Z"/>
    <path class="cls-1" d="M77.54,116.76v-3.34h4.25v1.74h-.45v-1.29h-3.36v2.43h6.07v-5.1h-6.51v-5.8h6.96v11.36h-6.96ZM84.05,110.74v-4.88h-6.07v4.88h6.07Z"/>
    <path class="cls-1" d="M91.25,113.64l.1-1.26h3.92l-.1,1.26h-3.92Z"/>
    <path class="cls-1" d="M109.6,116.76h-8.7v-.58l6.35-10.33h0s-4.54,0-4.54,0v-.45h4.99v.59l-6.34,10.33h8.25v.45Z"/>
    <path class="cls-1" d="M113.27,116.15c-.56-.53-1-1.24-1.32-2.13-.32-.89-.48-1.87-.48-2.92s.16-2.03.48-2.92c.32-.89.76-1.61,1.32-2.13s1.17-.79,1.84-.79,1.29.26,1.84.79c.56.53.99,1.24,1.31,2.13s.48,1.87.48,2.92-.16,2.03-.48,2.92c-.32.9-.76,1.61-1.31,2.13-.56.53-1.17.79-1.84.79s-1.28-.26-1.84-.79ZM116.66,115.73c.48-.48.86-1.13,1.14-1.95.28-.82.42-1.72.42-2.69s-.14-1.87-.42-2.69c-.28-.82-.66-1.47-1.14-1.95-.48-.48-.99-.72-1.55-.72s-1.06.24-1.54.72c-.48.48-.86,1.13-1.14,1.95-.29.82-.43,1.72-.43,2.69s.14,1.87.43,2.69.67,1.47,1.14,1.95c.48.48.99.72,1.54.72s1.07-.24,1.55-.72Z"/>
    <path class="cls-1" d="M129.18,116.76h-8.7v-.58l6.35-10.33h0s-4.54,0-4.54,0v-.45h4.99v.59l-6.34,10.33h8.25v.45Z"/>
    <path class="cls-1" d="M137.17,116.76v-3.55h-6.19v-.56l6.09-7.26h.54v11.36h-.45ZM137.17,112.77v-6.78l-5.7,6.78h5.7Z"/>
  </g>
  <g>
    <path class="cls-1" d="M57.91,116.76h-8.7v-.58l6.35-10.33h0s-4.54,0-4.54,0v-.45h4.99v.59l-6.34,10.33h8.25v.45Z"/>
    <path class="cls-1" d="M61.58,116.15c-.56-.53-1-1.24-1.31-2.13-.32-.89-.48-1.87-.48-2.92s.16-2.03.48-2.92c.32-.89.76-1.61,1.31-2.13s1.17-.79,1.84-.79,1.29.26,1.84.79,1,1.24,1.31,2.13c.32.89.48,1.87.48,2.92s-.16,2.03-.48,2.92c-.32.9-.76,1.61-1.31,2.13s-1.17.79-1.84.79-1.28-.26-1.84-.79ZM64.97,115.73c.48-.48.86-1.13,1.14-1.95.28-.82.42-1.72.42-2.69s-.14-1.87-.42-2.69c-.28-.82-.66-1.47-1.14-1.95-.48-.48-.99-.72-1.55-.72s-1.06.24-1.54.72c-.48.48-.86,1.13-1.14,1.95-.29.82-.43,1.72-.43,2.69s.14,1.87.43,2.69c.28.82.67,1.47,1.14,1.95.48.48.99.72,1.54.72s1.07-.24,1.55-.72Z"/>
    <path class="cls-1" d="M73.28,116.76v-10.76l-3.87,4.1-.32-.34,4.12-4.36h.52v11.36h-.45Z"/>
    <path class="cls-1" d="M77.54,116.76v-3.34h4.25v1.74h-.45v-1.29h-3.36v2.43h6.07v-5.1h-6.51v-5.8h6.96v11.36h-6.96ZM84.05,110.74v-4.88h-6.07v4.88h6.07Z"/>
    <path class="cls-1" d="M91.25,113.64l.1-1.26h3.92l-.1,1.26h-3.92Z"/>
    <path class="cls-1" d="M109.6,116.76h-8.7v-.58l6.35-10.33h0s-4.54,0-4.54,0v-.45h4.99v.59l-6.34,10.33h8.25v.45Z"/>
    <path class="cls-1" d="M113.27,116.15c-.56-.53-1-1.24-1.32-2.13-.32-.89-.48-1.87-.48-2.92s.16-2.03.48-2.92c.32-.89.76-1.61,1.32-2.13s1.17-.79,1.84-.79,1.29.26,1.84.79c.56.53.99,1.24,1.31,2.13s.48,1.87.48,2.92-.16,2.03-.48,2.92c-.32.9-.76,1.61-1.31,2.13-.56.53-1.17.79-1.84.79s-1.28-.26-1.84-.79ZM116.66,115.73c.48-.48.86-1.13,1.14-1.95.28-.82.42-1.72.42-2.69s-.14-1.87-.42-2.69c-.28-.82-.66-1.47-1.14-1.95-.48-.48-.99-.72-1.55-.72s-1.06.24-1.54.72c-.48.48-.86,1.13-1.14,1.95-.29.82-.43,1.72-.43,2.69s.14,1.87.43,2.69.67,1.47,1.14,1.95c.48.48.99.72,1.54.72s1.07-.24,1.55-.72Z"/>
    <path class="cls-1" d="M129.18,116.76h-8.7v-.58l6.35-10.33h0s-4.54,0-4.54,0v-.45h4.99v.59l-6.34,10.33h8.25v.45Z"/>
    <path class="cls-1" d="M137.17,116.76v-3.55h-6.19v-.56l6.09-7.26h.54v11.36h-.45ZM137.17,112.77v-6.78l-5.7,6.78h5.7Z"/>
  </g>
</svg>