<?xml version="1.0" encoding="utf-8"?>
<!-- Generator: Adobe Illustrator 28.1.0, SVG Export Plug-In . SVG Version: 6.00 Build 0)  -->
<svg version="1.1" id="Layer_1" xmlns="http://www.w3.org/2000/svg" xmlns:xlink="http://www.w3.org/1999/xlink" x="0px" y="0px"
	 viewBox="0 0 190.6 122.4" style="enable-background:new 0 0 190.6 122.4;" xml:space="preserve">
<style type="text/css">
	.st0{fill:#FFFFFF;}
</style>
<path class="st0" d="M155.7,39.2c0,0,0.1-0.2-0.1-0.1C155.7,39.1,155.7,39.2,155.7,39.2c0.1,0.1,0.1,0.3,0.2,0.4
	c1.4,2.2,2.6,4.5,3.7,6.8c1.9,4.2,3.4,8.6,4,13.2c0.4,2.7,0.5,5.4,0.3,8.1c0,0.3-0.1,0.6-0.1,1c-3.3-1.9-6.4-4-9.3-6.3
	c0,0.2,0.1,0.3,0.1,0.4c0.7,1.6,1.3,3.3,2,4.9c0.2,0.4,0.3,0.9,0.3,1.3c0.2,2.1,0.5,4.2,0.7,6.3c0.3,2.8,0.7,5.7,1,8.5
	c0.1,0.4,0,0.8,0.2,1.3c0.1-0.2,0.1-0.2,0.2-0.3c1-2,2.1-4,3.1-6c0.5-1.1,1.2-2.1,1.5-3.3c0.3-1,0.7-2,1-3c0.1-0.3,0.3-0.7,0.3-1
	c0.2-1.7,0.4-3.3,0.3-5c0-1.3-0.1-2.6-0.2-3.9c-0.3-2.9-0.9-5.7-1.8-8.5c-1.7-5.2-4.2-10-7.2-14.5C156,39.4,155.9,39.2,155.7,39.2
	 M164.3,42c0.5,3.4,1.2,6.9,2.1,10.4c1.1,4.6,2.5,9.2,4.3,13.6c0.6,1.5,1.3,2.9,2,4.3c1.1,2.1,2,4.2,2.9,6.4
	c1.3,3.1,2.6,6.1,3.9,9.2c0.9,2.1,1.7,4.2,2.3,6.4c0.1,0.4,0.2,0.9,0.3,1.3c0.1,0.4,0,0.8-0.1,1.2c-0.1,0.4-0.4,0.6-0.8,0.6
	c-0.4,0-0.9-0.1-1.3-0.3c-2.1-1-3.8-2.4-5-4.3c-1.4-2.1-2.6-4.2-3.8-6.4c-1.8-3.3-3.4-6.7-4.9-10.2c-0.1-0.1-0.1-0.3-0.2-0.3
	c-0.1,0.1-0.1,0.2-0.2,0.4c-0.3,0.8-0.6,1.7-0.9,2.6c-0.2,0.6-0.5,1.1-0.8,1.7c-1.4,2.7-2.8,5.4-4.1,8.1c-0.1,0.2-0.2,0.3-0.2,0.6
	c0.1,0.1,0.3,0.1,0.4,0.1c1.1,0,2.3,0,3.4,0c0.4,0,0.4,0,0.5,0.4c0,0.2,0,0.5,0,0.7c0,0.4,0,0.4-0.5,0.4c-3.1,0-6.1,0-9.1,0
	c-0.5,0-0.5,0-0.5-0.5c0-0.7,0.3-1.1,1-1.1c0.7,0,1.4,0,2.1,0c0.4,0,0.4,0,0.4-0.4c-0.3-2.3-0.6-4.6-0.9-6.9
	c-0.2-2.1-0.5-4.3-0.7-6.4c-0.2-1.5-0.4-3-0.6-4.5c0-0.2-0.1-0.3-0.1-0.4c-1.1-2.7-2.2-5.3-3.3-8c-0.1-0.4-0.4-0.7-0.6-0.9
	c-2.1-2.1-4-4.5-5.4-7.1c-1.2-2.2-2-4.4-2.3-6.9c-0.4-3,0.1-5.8,1.4-8.5c0.9-1.9,2.1-3.7,3.2-5.4c0.8-1.1,1.5-2.3,2.1-3.6
	c0.6-1.4,0.9-2.9,0.7-4.4c-0.2-1.1-0.5-2.1-1-3.1c-0.7-1.5-1.6-2.8-2.5-4.1c-0.1-0.2-0.2-0.3-0.3-0.5c0.6,0.3,1.2,0.8,1.7,1.3
	c1,0.8,2,1.7,3.1,2.5c1.1,0.8,2.3,1.5,3.7,1.9c0.6,0.2,1.3,0.2,2,0.2c-1.1-0.1-2.2-0.4-3.2-0.9c-1.1-0.6-2-1.3-2.9-2.1
	c-1.4-1.2-2.6-2.4-4-3.6c-0.4-0.4-0.8-0.7-1.3-1.1c-1.6-1.1-3-2.6-4.7-3.7c-2.6-1.8-5.5-3-8.6-3.6c-0.4-0.1-0.7,0-1.1-0.2
	c0.6-0.6,1.3-0.8,2-1c1.5-0.2,2.9,0,4.3,0.3c2.6,0.5,5.1,1.4,7.5,2.4c0.6,0.3,1.2,0.3,1.8,0.1c1.1-0.2,2.1-0.5,3.2-0.8
	c1.1-0.3,2.3-0.3,3.4-0.2c3.1,0.4,5.5,2,7.2,4.5c0.9,1.3,1.4,2.9,1.6,4.4c0.2,1.4,0.3,2.9,0.4,4.3c0.2,4.5,1.6,8.5,4.2,12.1
	c0.9,1.2,1.8,2.3,2.8,3.5c2.1,2.3,3.3,5,4.1,7.9c0.5,2,0.8,4,1,6c0.1,2,0.1,3.9,0.1,5.8c-0.1,2.7-0.4,5.3-0.9,7.9
	c-0.3,1.7-0.6,3.4-0.9,5.1c-0.2,0-0.2-0.2-0.3-0.3c-1.5-2.9-2.8-5.9-3.9-8.9c-1.5-4-2.6-8.1-3.6-12.2c-0.4-1.7-0.8-3.4-1.1-5.2
	C164.4,42.3,164.4,42.1,164.3,42"/>
<path class="st0" d="M73.8,45.2c0.6,0,1.2-0.1,1.7-0.2c1.2-0.1,2.4-0.3,3.7-0.4c1.6-0.2,3.3-0.4,4.9-0.5c1.2-0.1,2.4-0.2,3.7-0.4
	c1.7-0.2,3.4-0.4,5.1-0.5c1.2-0.1,2.3-0.2,3.5-0.4c1.7-0.2,3.5-0.4,5.2-0.6c1.8-0.2,3.7-0.4,5.5-0.7c2-0.3,4-0.6,6.1-1
	c4.5-0.8,9-1.8,13.5-2.9c0.3-0.1,0.5,0,0.7,0.3c0.2,0.4,0.7,0.7,0.7,1.2c0.1,0.4-0.2,0.9-0.4,1.3c-1.2,3.5-2.4,7.1-3.6,10.6
	c0,0.1-0.1,0.1-0.1,0.2c-0.1,0.3-0.3,0.4-0.5,0.3c-0.5-0.1-1-0.2-1.5-0.2c-0.2,0-0.3-0.1-0.3-0.4c0.2-0.9,0.4-1.9,0.6-2.8
	c0-0.2,0.1-0.4,0-0.6c-0.2,0-0.3,0.1-0.5,0.1c-5.4,2.1-10.9,3.7-16.5,4.9c-2.5,0.5-5,0.9-7.5,1.2c-1.6,0.2-3.2,0.3-4.8,0.5
	c-2,0.2-3.9,0.4-5.9,0.6c-1.3,0.1-2.5,0.2-3.8,0.4c-1.6,0.2-3.2,0.3-4.8,0.5c-1.2,0.1-2.4,0.2-3.7,0.4c-1.7,0.2-3.5,0.4-5.2,0.5
	c-0.3,0-0.7,0.1-1,0.1c-0.2,0-0.3-0.1-0.3-0.2c0-0.1,0-0.2,0-0.3c0-2.5-0.1-5-0.2-7.5c-0.1-2.4-0.2-4.9-0.3-7.3
	c-0.1-2.5-0.3-5-0.5-7.5c-0.2-2.7-0.4-5.4-0.6-8.1c-0.2-2-0.3-4-0.5-5.9c0-0.4,0-0.6,0.3-0.9c2.1-2.4,4.3-4.6,6.8-6.5
	c0.8-0.6,1.6-1.1,2.4-1.6c0.2,0.6,0.3,1.2,0.3,1.8c0.2,2.2,0.2,4.4,0.1,6.7c-0.1,2.3-0.2,4.6-0.3,6.9c-0.2,2.8-0.4,5.6-0.7,8.4
	c-0.2,2.5-0.5,5-0.8,7.5c-0.1,0.8-0.2,1.7-0.4,2.5C73.8,45,73.8,45,73.8,45.2"/>
<path class="st0" d="M8.5,52.7c1.2-0.4,2.3-0.7,3.4-1.1c7.5-2.4,15-5.1,22.2-8.5c0.7-0.3,1.4-0.7,2.1-1c0.3-0.2,0.5-0.4,0.7-0.7
	c1.2-2.4,2.4-4.8,3.6-7.3c0.3-0.7,0.8-1.4,1.2-2.1c0.7-1,1.7-1.6,2.8-1.9c1.2-0.3,2.4-0.4,3.6-0.6c2-0.3,3.9-0.5,5.8-1
	c0.4-0.1,0.6-0.3,0.7-0.7c0.5-2,1-4.1,1.4-6.1c0.1-0.5,0.1-0.5,0.6-0.5c0.5,0,1,0,1.5,0c0.4,0,0.4,0,0.4,0.4
	c-0.7,6-2.1,11.7-4.7,17.2c-0.2,0.4-0.4,0.6-0.8,0.7c-2,0.5-4,0.9-6,1.2c-2.2,0.3-4.4,0.5-6.6,0.7c-0.5,0-0.7,0.2-0.9,0.7
	c-1.1,3.5-2.6,6.8-4.9,9.8c-1.4,1.8-3,3.5-5,4.6c-1.5,0.9-3.2,1.4-4.9,1.6c-2.3,0.3-4.6,0-6.8-0.7c-2.7-0.8-5.2-1.8-7.6-3.2
	C9.7,53.8,9.1,53.4,8.5,52.7"/>
<path class="st0" d="M122.4,79.3c1.6,1.3,2.5,3.1,3.7,4.6c0.9,1.2,1.8,2.3,2.9,3.3c0.8,0.7,1.6,1.1,2.6,1.2c0.1,0,0.2,0,0.3,0.1
	c0,0,0.1,0.1,0.1,0.1c0,0.1,0,0.1-0.1,0.1c0,0,0,0-0.1,0c-1.2,0-2.4,0.1-3.5-0.3c-1.3-0.5-2.4-1.3-3.2-2.4c-1.2-1.7-2.4-3.4-3.6-5.1
	c-0.3-0.5-0.7-0.9-1.1-1.3c-0.5-0.5-1-0.9-1.6-1c-0.1,0-0.2-0.1-0.2-0.2c0-0.1,0.1-0.1,0.2-0.1c0.2,0,0.3,0,0.5,0
	c0.8,0,1.6,0,2.4-0.2c1.7-0.4,2.8-1.5,3.1-3.2c0.2-1.2,0.2-2.4-0.3-3.6c-0.6-1.4-1.7-2.2-3.2-2.3c-1.1-0.1-2.2,0-3.3,0
	c-0.4,0-0.4,0-0.4,0.4c0,0.1,0,0.3,0,0.4c0,5.4,0,10.8,0,16.2c0,0.2,0,0.5,0,0.8c0.1,0.9,0.7,1.6,1.6,1.7c0.2,0,0.6-0.1,0.5,0.2
	c0,0.3-0.4,0.1-0.6,0.1c-1.7,0-3.5,0-5.2,0c-0.1,0-0.2,0-0.3,0c-0.1,0-0.3,0-0.2-0.2c0-0.2,0.2-0.1,0.3-0.2c0.3,0,0.5,0,0.8-0.1
	c0.7-0.3,1.1-0.8,1.2-1.5c0-0.2,0-0.5,0-0.7c0-5.1,0-10.2,0-15.3c0-0.2,0-0.4,0-0.6c-0.1-1.1-0.8-1.8-1.8-1.9
	c-0.2,0-0.4,0.1-0.4-0.2c0-0.2,0.3-0.2,0.4-0.2c2.6,0,5.1,0,7.7,0c0.6,0,1.2,0.1,1.8,0.2c2.2,0.6,3.6,2.3,3.8,4.6
	c0.2,2-0.4,3.7-1.8,5.1C124.6,78.7,123.6,79.1,122.4,79.3"/>
<path class="st0" d="M68.1,78.3V87c0,0.2,0,0.3,0,0.5c0,0.2,0.1,0.3,0.3,0.3c1.3,0,2.7,0.1,3.9-0.1c1.6-0.3,2.7-1.2,3.2-2.7
	c0.3-0.8,0.3-1.7,0.2-2.5c-0.1-1.6-0.9-2.9-2.4-3.7c-0.8-0.4-1.6-0.6-2.5-0.7c-0.5-0.1-1.1-0.1-1.6-0.1c-0.1,0-0.2,0-0.2-0.1
	c0-0.2,0.1-0.2,0.2-0.2c0.4,0,0.8-0.1,1.2-0.1c1.8-0.3,3-1.5,3.3-3.2c0.1-0.6,0.1-1.3,0-1.9c-0.3-1.8-1.3-2.8-3.1-3.2
	c-0.7-0.1-1.5-0.1-2.2-0.1c-0.5,0-0.5,0-0.5,0.5c0,0.1,0,0.2,0,0.3L68.1,78.3L68.1,78.3z M73.2,77.4c0.1,0.1,0.3,0.1,0.4,0.2
	c2.7,0.7,4.4,2.8,4.4,5.5c0,2.3-1.2,4.2-3.4,5.1c-1,0.4-1.9,0.6-3,0.6c-2.4,0-4.9,0-7.4,0c-0.1,0-0.2,0-0.3,0c0,0-0.1,0-0.1-0.1
	c0-0.1,0-0.2,0.1-0.2c0.2,0,0.3,0,0.5-0.1c0.9-0.1,1.6-0.8,1.7-1.8c0-0.2,0-0.4,0-0.6c0-5.2,0-10.3,0-15.4c0-0.1,0-0.3,0-0.4
	c0-1.1-0.7-1.9-1.8-2c-0.1,0-0.1,0-0.2,0c-0.1,0-0.2,0-0.2-0.2c0-0.1,0.1-0.1,0.2-0.1c0,0,0.1,0,0.1,0c2.3,0,4.6-0.1,6.8,0.1
	c1.2,0.1,2.3,0.4,3.3,1.1c1.6,1.1,2.1,2.6,1.9,4.5c-0.2,1.7-1.2,2.9-2.7,3.6C73.4,77.3,73.3,77.4,73.2,77.4"/>
<path class="st0" d="M47.4,80.7c-0.2-0.8-3.3-9-3.6-9.4c-1.2,3.1-2.4,6.2-3.7,9.4H47.4z M43.8,81.6c-1.2,0-2.4,0-3.6,0
	c-0.3,0-0.5,0.1-0.6,0.4c-0.5,1.4-1.1,2.9-1.7,4.3c-0.1,0.2-0.2,0.5-0.2,0.8c0,0.7,0.3,1.2,1,1.3c0.1,0,0.2,0,0.2,0
	c0.1,0,0.3,0,0.2,0.2c0,0.2-0.2,0.1-0.3,0.1c-1.8,0-3.6,0-5.4,0c-0.1,0-0.3,0-0.2-0.2c0-0.2,0.2-0.2,0.3-0.2
	c1.4-0.1,2.2-0.9,2.7-2.1c1.5-3.5,3-7,4.4-10.5c0.9-2.1,1.8-4.2,2.7-6.3c0.2-0.6,0.5-1.1,0.6-1.7c0-0.1,0-0.2,0.2-0.3
	c0.2,0,0.2,0.1,0.3,0.2c0.7,1.6,1.4,3.2,2,4.9c1.9,4.5,3.8,9.1,5.7,13.6c0.3,0.7,0.7,1.4,1.5,1.8c0.4,0.2,0.8,0.3,1.3,0.3
	c0.1,0,0.2,0,0.2,0.2c0,0.1-0.1,0.1-0.2,0.2c-0.1,0-0.2,0-0.3,0c-1.9,0-3.8,0-5.6,0c0,0-0.1,0-0.1,0c-0.1,0-0.4,0.1-0.4-0.1
	s0.2-0.2,0.4-0.2c0.9-0.2,1.3-0.8,1-1.7c-0.4-1.2-0.9-2.4-1.4-3.7c-0.1-0.4-0.3-0.7-0.4-1.1c-0.1-0.3-0.3-0.4-0.6-0.4
	C46.2,81.6,45,81.5,43.8,81.6"/>
<path class="st0" d="M100.9,67.5c0.1,0.4,0.1,0.8,0.1,1.1c0,0.7,0,1.4,0,2.1c0,0.2,0.1,0.4-0.1,0.4c-0.2,0-0.1-0.3-0.2-0.4
	c0-0.1,0-0.2,0-0.3c-0.1-0.9-0.8-1.5-1.7-1.5c-1.8,0-3.6,0-5.5,0c-0.5,0-0.5,0-0.5,0.5c0,2.7,0,5.4,0,8.1c0,0.5,0,0.5,0.5,0.5
	c1.4,0,2.9,0,4.3,0c1,0,1.5-0.5,1.6-1.5c0-0.1,0-0.1,0-0.2c0-0.1,0.1-0.2,0.2-0.2c0.1,0,0.1,0.1,0.1,0.2c0,0.1,0,0.2,0,0.2
	c0,1.3,0,2.6,0,3.8c0,0.1,0.1,0.4-0.1,0.4c-0.2,0-0.2-0.2-0.2-0.4c-0.1-1-0.6-1.5-1.6-1.5c-1.5,0-2.9,0-4.4,0c-0.4,0-0.4,0-0.4,0.4
	c0,0.7,0,1.4,0,2.1c0,1.9,0,3.9,0,5.9c0,0.5,0,0.5,0.5,0.5c1.4,0,2.8,0,4.2,0c1.7,0,3.1-0.7,3.9-2.2c0.2-0.4,0.4-0.8,0.7-1.2
	c0.1-0.1,0.1-0.2,0.2-0.3c0-0.1,0.1-0.1,0.2-0.1c0.1,0,0.1,0.1,0.1,0.2c0,0.1,0,0.1-0.1,0.2c-0.5,1.3-1,2.7-1.4,4
	c-0.1,0.3-0.3,0.4-0.6,0.4c-3.8,0-7.6,0-11.4,0c-0.1,0-0.2,0-0.2,0c-0.1,0-0.2,0-0.2-0.2c0-0.1,0.1-0.1,0.2-0.1c0.1,0,0.1,0,0.2,0
	c1.2-0.1,1.8-0.8,1.8-1.9c0-0.2,0-0.3,0-0.5c0-5.1,0-10.1,0-15.2c0-0.2,0-0.5,0-0.7c0-1-0.8-1.7-1.7-1.8c-0.2,0-0.5,0.1-0.5-0.2
	c0-0.3,0.3-0.2,0.5-0.2c2.3,0,4.6,0,6.8,0C97.8,68,99.4,68,100.9,67.5"/>
<path class="st0" d="M55.3,52c-0.3,0.2-0.6,0.4-0.9,0.6c-1.7,1.1-3.3,2.2-5,3.3c-0.5,0.3-0.4,0.3-0.8-0.1c-0.8-0.7-1.5-1.4-2.2-2.3
	c-1-1.2-1.8-2.4-2.6-3.7c-0.2-0.2-0.1-0.3,0.1-0.5c2.2-1.4,4.3-2.9,6.5-4.3c0.3-0.2,0.3-0.2,0.5,0.1c0.6,1,1.2,2,1.9,3
	c0.7,1.2,1.5,2.3,2.3,3.4C55.2,51.8,55.3,51.8,55.3,52"/>
<path class="st0" d="M23.2,69.7c0,0.5,0,1,0,1.5c0,0.1,0,0.3-0.1,0.3c-0.1,0-0.1-0.2-0.2-0.3c0-0.2,0-0.3-0.1-0.5
	c-0.1-0.5-0.4-1-0.8-1.3c-1.2-1.2-3.6-1.2-4.9-0.1c-1.6,1.3-1.7,3.7-0.2,5.2c0.9,0.9,1.9,1.8,2.9,2.7c1,1,2.1,1.9,3.1,2.9
	c1.2,1.1,1.6,2.6,1.5,4.1c-0.1,2.1-1.1,3.7-3.1,4.6c-0.6,0.3-1.3,0.4-2,0.4c-1.3,0.1-2.5-0.1-3.7-0.5c-0.3-0.1-0.5-0.2-0.8-0.3
	c-1.1-0.5-1.1-0.7-1.1-1.9c0-0.8,0.1-1.6,0.3-2.4c0-0.2,0.1-0.3,0.1-0.4c0-0.1,0.1-0.2,0.2-0.1c0.1,0,0.1,0.1,0.1,0.2
	c0,0.5,0,0.9,0.1,1.4c0.4,2.2,2.2,3.5,4.6,3.2c0.7-0.1,1.3-0.3,1.9-0.7c2.2-1.4,2.1-4.6,0.6-5.9c-1.8-1.6-3.5-3.2-5.2-4.8
	c-0.2-0.2-0.5-0.5-0.7-0.7c-1.3-1.4-1.8-3.1-1.2-5c0.6-1.9,1.9-3,3.8-3.4c1-0.2,2-0.1,3,0.1c0.5,0.1,0.9,0.1,1.4,0.1
	c0.5,0,0.5,0,0.5,0.6L23.2,69.7L23.2,69.7"/>
<path class="st0" d="M57.3,57.3c0.1,0.8,0.1,1.5,0.2,2.3c0,0.3-0.2,0.4-0.4,0.4c-1,0.4-2,0.7-3,1.1c-3.7,1.3-7.4,2.6-11.1,4
	c-0.4,0.2-0.5,0.2-0.6-0.3c0-0.3-0.2-0.7-0.2-1c-0.1-0.3,0-0.4,0.2-0.5c1.1-0.4,2.2-0.9,3.3-1.4c3.7-1.5,7.4-3,11.1-4.5
	C57,57.4,57.1,57.3,57.3,57.3"/>
</svg>
